<svg id="visual" viewBox="0 0 900 450" width="900" height="450" xmlns="http://www.w3.org/2000/svg" xmlns:xlink="http://www.w3.org/1999/xlink" version="1.1"><path d="M854 450L855.5 446.7C857 443.3 860 436.7 857 430.2C854 423.7 845 417.3 842 410.8C839 404.3 842 397.7 849.5 391.2C857 384.7 869 378.3 873.5 371.8C878 365.3 875 358.7 873.5 352.2C872 345.7 872 339.3 872 332.8C872 326.3 872 319.7 870.5 313C869 306.3 866 299.7 867.5 293.2C869 286.7 875 280.3 873.5 273.8C872 267.3 863 260.7 861.5 254.2C860 247.7 866 241.3 864.5 234.8C863 228.3 854 221.7 855.5 215.2C857 208.7 869 202.3 869 195.8C869 189.3 857 182.7 857 176.2C857 169.7 869 163.3 875 156.8C881 150.3 881 143.7 879.5 137C878 130.3 875 123.7 875 117.2C875 110.7 878 104.3 879.5 97.8C881 91.3 881 84.7 876.5 78.2C872 71.7 863 65.3 857 58.8C851 52.3 848 45.7 848 39.2C848 32.7 851 26.3 851 19.8C851 13.3 848 6.7 846.5 3.3L845 0L900 0L900 3.3C900 6.7 900 13.3 900 19.8C900 26.3 900 32.7 900 39.2C900 45.7 900 52.3 900 58.8C900 65.3 900 71.7 900 78.2C900 84.7 900 91.3 900 97.8C900 104.3 900 110.7 900 117.2C900 123.7 900 130.3 900 137C900 143.7 900 150.3 900 156.8C900 163.3 900 169.7 900 176.2C900 182.7 900 189.3 900 195.8C900 202.3 900 208.7 900 215.2C900 221.7 900 228.3 900 234.8C900 241.3 900 247.7 900 254.2C900 260.7 900 267.3 900 273.8C900 280.3 900 286.7 900 293.2C900 299.7 900 306.3 900 313C900 319.7 900 326.3 900 332.8C900 339.3 900 345.7 900 352.2C900 358.7 900 365.3 900 371.8C900 378.3 900 384.7 900 391.2C900 397.7 900 404.3 900 410.8C900 417.3 900 423.7 900 430.2C900 436.7 900 443.3 900 446.7L900 450Z" fill="#494853"></path><path d="M827 450L827 446.7C827 443.3 827 436.7 824 430.2C821 423.7 815 417.3 812 410.8C809 404.3 809 397.7 816.5 391.2C824 384.7 839 378.3 839 371.8C839 365.3 824 358.7 818 352.2C812 345.7 815 339.3 821 332.8C827 326.3 836 319.7 834.5 313C833 306.3 821 299.7 819.5 293.2C818 286.7 827 280.3 831.5 273.8C836 267.3 836 260.7 833 254.2C830 247.7 824 241.3 816.5 234.8C809 228.3 800 221.7 803 215.2C806 208.7 821 202.3 819.5 195.8C818 189.3 800 182.7 800 176.2C800 169.7 818 163.3 827 156.8C836 150.3 836 143.7 839 137C842 130.3 848 123.7 849.5 117.2C851 110.7 848 104.3 845 97.8C842 91.3 839 84.7 837.5 78.2C836 71.7 836 65.3 833 58.8C830 52.3 824 45.7 816.5 39.2C809 32.7 800 26.3 797 19.8C794 13.3 797 6.7 798.5 3.3L800 0L846 0L847.5 3.3C849 6.7 852 13.3 852 19.8C852 26.3 849 32.7 849 39.2C849 45.7 852 52.3 858 58.8C864 65.3 873 71.7 877.5 78.2C882 84.7 882 91.3 880.5 97.8C879 104.3 876 110.7 876 117.2C876 123.7 879 130.3 880.5 137C882 143.7 882 150.3 876 156.8C870 163.3 858 169.7 858 176.2C858 182.7 870 189.3 870 195.8C870 202.3 858 208.7 856.5 215.2C855 221.7 864 228.3 865.5 234.8C867 241.3 861 247.7 862.5 254.2C864 260.7 873 267.3 874.5 273.8C876 280.3 870 286.7 868.5 293.2C867 299.7 870 306.3 871.5 313C873 319.7 873 326.3 873 332.8C873 339.3 873 345.7 874.5 352.2C876 358.7 879 365.3 874.5 371.8C870 378.3 858 384.7 850.5 391.2C843 397.7 840 404.3 843 410.8C846 417.3 855 423.7 858 430.2C861 436.7 858 443.3 856.5 446.7L855 450Z" fill="#43424c"></path><path d="M764 450L767 446.7C770 443.3 776 436.7 776 430.2C776 423.7 770 417.3 770 410.8C770 404.3 776 397.7 777.5 391.2C779 384.7 776 378.3 771.5 371.8C767 365.3 761 358.7 762.5 352.2C764 345.7 773 339.3 783.5 332.8C794 326.3 806 319.7 803 313C800 306.3 782 299.7 776 293.2C770 286.7 776 280.3 779 273.8C782 267.3 782 260.7 777.5 254.2C773 247.7 764 241.3 759.5 234.8C755 228.3 755 221.7 764 215.2C773 208.7 791 202.3 785 195.8C779 189.3 749 182.7 747.5 176.2C746 169.7 773 163.3 780.5 156.8C788 150.3 776 143.7 776 137C776 130.3 788 123.7 792.5 117.2C797 110.7 794 104.3 794 97.8C794 91.3 797 84.7 794 78.2C791 71.7 782 65.3 780.5 58.8C779 52.3 785 45.7 783.5 39.2C782 32.7 773 26.3 762.5 19.8C752 13.3 740 6.7 734 3.3L728 0L801 0L799.5 3.3C798 6.7 795 13.3 798 19.8C801 26.3 810 32.7 817.5 39.2C825 45.7 831 52.3 834 58.8C837 65.3 837 71.7 838.5 78.2C840 84.7 843 91.3 846 97.8C849 104.3 852 110.7 850.5 117.2C849 123.7 843 130.3 840 137C837 143.7 837 150.3 828 156.8C819 163.3 801 169.7 801 176.2C801 182.7 819 189.3 820.5 195.8C822 202.3 807 208.7 804 215.2C801 221.7 810 228.3 817.5 234.8C825 241.3 831 247.7 834 254.2C837 260.7 837 267.3 832.5 273.8C828 280.3 819 286.7 820.5 293.2C822 299.7 834 306.3 835.5 313C837 319.7 828 326.3 822 332.8C816 339.3 813 345.7 819 352.2C825 358.7 840 365.3 840 371.8C840 378.3 825 384.7 817.5 391.2C810 397.7 810 404.3 813 410.8C816 417.3 822 423.7 825 430.2C828 436.7 828 443.3 828 446.7L828 450Z" fill="#3c3b45"></path><path d="M719 450L711.5 446.7C704 443.3 689 436.7 681.5 430.2C674 423.7 674 417.3 681.5 410.8C689 404.3 704 397.7 711.5 391.2C719 384.7 719 378.3 714.5 371.8C710 365.3 701 358.7 705.5 352.2C710 345.7 728 339.3 741.5 332.8C755 326.3 764 319.7 755 313C746 306.3 719 299.7 714.5 293.2C710 286.7 728 280.3 737 273.8C746 267.3 746 260.7 738.5 254.2C731 247.7 716 241.3 704 234.8C692 228.3 683 221.7 689 215.2C695 208.7 716 202.3 710 195.8C704 189.3 671 182.7 669.5 176.2C668 169.7 698 163.3 704 156.8C710 150.3 692 143.7 698 137C704 130.3 734 123.7 744.5 117.2C755 110.7 746 104.3 741.5 97.8C737 91.3 737 84.7 735.5 78.2C734 71.7 731 65.3 723.5 58.8C716 52.3 704 45.7 698 39.2C692 32.7 692 26.3 686 19.8C680 13.3 668 6.7 662 3.3L656 0L729 0L735 3.3C741 6.7 753 13.3 763.5 19.8C774 26.3 783 32.7 784.5 39.2C786 45.7 780 52.3 781.5 58.8C783 65.3 792 71.7 795 78.2C798 84.7 795 91.3 795 97.8C795 104.3 798 110.7 793.5 117.2C789 123.7 777 130.3 777 137C777 143.7 789 150.3 781.5 156.8C774 163.3 747 169.7 748.5 176.2C750 182.7 780 189.3 786 195.8C792 202.3 774 208.7 765 215.2C756 221.7 756 228.3 760.5 234.8C765 241.3 774 247.7 778.5 254.2C783 260.7 783 267.3 780 273.8C777 280.3 771 286.7 777 293.2C783 299.7 801 306.3 804 313C807 319.7 795 326.3 784.5 332.8C774 339.3 765 345.7 763.5 352.2C762 358.7 768 365.3 772.5 371.8C777 378.3 780 384.7 778.5 391.2C777 397.7 771 404.3 771 410.8C771 417.3 777 423.7 777 430.2C777 436.7 771 443.3 768 446.7L765 450Z" fill="#36353e"></path><path d="M683 450L677 446.7C671 443.3 659 436.7 654.5 430.2C650 423.7 653 417.3 657.5 410.8C662 404.3 668 397.7 674 391.2C680 384.7 686 378.3 684.5 371.8C683 365.3 674 358.7 680 352.2C686 345.7 707 339.3 720.5 332.8C734 326.3 740 319.7 726.5 313C713 306.3 680 299.7 675.5 293.2C671 286.7 695 280.3 707 273.8C719 267.3 719 260.7 708.5 254.2C698 247.7 677 241.3 662 234.8C647 228.3 638 221.7 645.5 215.2C653 208.7 677 202.3 671 195.8C665 189.3 629 182.7 626 176.2C623 169.7 653 163.3 659 156.8C665 150.3 647 143.7 656 137C665 130.3 701 123.7 713 117.2C725 110.7 713 104.3 708.5 97.8C704 91.3 707 84.7 708.5 78.2C710 71.7 710 65.3 702.5 58.8C695 52.3 680 45.7 674 39.2C668 32.7 671 26.3 665 19.8C659 13.3 644 6.7 636.5 3.3L629 0L657 0L663 3.3C669 6.7 681 13.3 687 19.8C693 26.3 693 32.7 699 39.2C705 45.7 717 52.3 724.5 58.8C732 65.3 735 71.7 736.5 78.2C738 84.7 738 91.3 742.5 97.8C747 104.3 756 110.7 745.5 117.2C735 123.7 705 130.3 699 137C693 143.7 711 150.3 705 156.8C699 163.3 669 169.7 670.5 176.2C672 182.7 705 189.3 711 195.8C717 202.3 696 208.7 690 215.2C684 221.7 693 228.3 705 234.8C717 241.3 732 247.7 739.5 254.2C747 260.7 747 267.3 738 273.8C729 280.3 711 286.7 715.5 293.2C720 299.7 747 306.3 756 313C765 319.7 756 326.3 742.5 332.8C729 339.3 711 345.7 706.5 352.2C702 358.7 711 365.3 715.5 371.8C720 378.3 720 384.7 712.5 391.2C705 397.7 690 404.3 682.5 410.8C675 417.3 675 423.7 682.5 430.2C690 436.7 705 443.3 712.5 446.7L720 450Z" fill="#302f38"></path><path d="M602 450L593 446.7C584 443.3 566 436.7 555.5 430.2C545 423.7 542 417.3 546.5 410.8C551 404.3 563 397.7 569 391.2C575 384.7 575 378.3 582.5 371.8C590 365.3 605 358.7 618.5 352.2C632 345.7 644 339.3 650 332.8C656 326.3 656 319.7 641 313C626 306.3 596 299.7 590 293.2C584 286.7 602 280.3 608 273.8C614 267.3 608 260.7 605 254.2C602 247.7 602 241.3 591.5 234.8C581 228.3 560 221.7 557 215.2C554 208.7 569 202.3 566 195.8C563 189.3 542 182.7 548 176.2C554 169.7 587 163.3 591.5 156.8C596 150.3 572 143.7 578 137C584 130.3 620 123.7 627.5 117.2C635 110.7 614 104.3 603.5 97.8C593 91.3 593 84.7 605 78.2C617 71.7 641 65.3 639.5 58.8C638 52.3 611 45.7 600.5 39.2C590 32.7 596 26.3 597.5 19.8C599 13.3 596 6.7 594.5 3.3L593 0L630 0L637.5 3.3C645 6.7 660 13.3 666 19.8C672 26.3 669 32.7 675 39.2C681 45.7 696 52.3 703.5 58.8C711 65.3 711 71.7 709.5 78.2C708 84.7 705 91.3 709.5 97.8C714 104.3 726 110.7 714 117.2C702 123.7 666 130.3 657 137C648 143.7 666 150.3 660 156.8C654 163.3 624 169.7 627 176.2C630 182.7 666 189.3 672 195.8C678 202.3 654 208.7 646.5 215.2C639 221.7 648 228.3 663 234.8C678 241.3 699 247.7 709.5 254.2C720 260.7 720 267.3 708 273.8C696 280.3 672 286.7 676.5 293.2C681 299.7 714 306.3 727.5 313C741 319.7 735 326.3 721.5 332.8C708 339.3 687 345.7 681 352.2C675 358.7 684 365.3 685.5 371.8C687 378.3 681 384.7 675 391.2C669 397.7 663 404.3 658.5 410.8C654 417.3 651 423.7 655.5 430.2C660 436.7 672 443.3 678 446.7L684 450Z" fill="#2a2931"></path><path d="M575 450L566 446.7C557 443.3 539 436.7 525.5 430.2C512 423.7 503 417.3 501.5 410.8C500 404.3 506 397.7 512 391.2C518 384.7 524 378.3 537.5 371.8C551 365.3 572 358.7 587 352.2C602 345.7 611 339.3 612.5 332.8C614 326.3 608 319.7 596 313C584 306.3 566 299.7 563 293.2C560 286.7 572 280.3 572 273.8C572 267.3 560 260.7 557 254.2C554 247.7 560 241.3 548 234.8C536 228.3 506 221.7 503 215.2C500 208.7 524 202.3 527 195.8C530 189.3 512 182.7 518 176.2C524 169.7 554 163.3 552.5 156.8C551 150.3 518 143.7 519.5 137C521 130.3 557 123.7 567.5 117.2C578 110.7 563 104.3 554 97.8C545 91.3 542 84.7 557 78.2C572 71.7 605 65.3 608 58.8C611 52.3 584 45.7 573.5 39.2C563 32.7 569 26.3 570.5 19.8C572 13.3 569 6.7 567.5 3.3L566 0L594 0L595.5 3.3C597 6.7 600 13.3 598.5 19.8C597 26.3 591 32.7 601.5 39.2C612 45.7 639 52.3 640.5 58.8C642 65.3 618 71.7 606 78.2C594 84.7 594 91.3 604.5 97.8C615 104.3 636 110.7 628.5 117.2C621 123.7 585 130.3 579 137C573 143.7 597 150.3 592.5 156.8C588 163.3 555 169.7 549 176.2C543 182.7 564 189.3 567 195.8C570 202.3 555 208.7 558 215.2C561 221.7 582 228.3 592.5 234.8C603 241.3 603 247.7 606 254.2C609 260.7 615 267.3 609 273.8C603 280.3 585 286.7 591 293.2C597 299.7 627 306.3 642 313C657 319.7 657 326.3 651 332.8C645 339.3 633 345.7 619.5 352.2C606 358.7 591 365.3 583.5 371.8C576 378.3 576 384.7 570 391.2C564 397.7 552 404.3 547.5 410.8C543 417.3 546 423.7 556.5 430.2C567 436.7 585 443.3 594 446.7L603 450Z" fill="#26252d"></path><path d="M377 450L386 446.7C395 443.3 413 436.7 413 430.2C413 423.7 395 417.3 383 410.8C371 404.3 365 397.7 372.5 391.2C380 384.7 401 378.3 392 371.8C383 365.3 344 358.7 344 352.2C344 345.7 383 339.3 399.5 332.8C416 326.3 410 319.7 401 313C392 306.3 380 299.7 369.5 293.2C359 286.7 350 280.3 363.5 273.8C377 267.3 413 260.7 420.5 254.2C428 247.7 407 241.3 383 234.8C359 228.3 332 221.7 339.5 215.2C347 208.7 389 202.3 381.5 195.8C374 189.3 317 182.7 308 176.2C299 169.7 338 163.3 365 156.8C392 150.3 407 143.7 417.5 137C428 130.3 434 123.7 425 117.2C416 110.7 392 104.3 374 97.8C356 91.3 344 84.7 336.5 78.2C329 71.7 326 65.3 333.5 58.8C341 52.3 359 45.7 366.5 39.2C374 32.7 371 26.3 369.5 19.8C368 13.3 368 6.7 368 3.3L368 0L567 0L568.5 3.3C570 6.7 573 13.3 571.5 19.8C570 26.3 564 32.7 574.5 39.2C585 45.7 612 52.3 609 58.8C606 65.3 573 71.7 558 78.2C543 84.7 546 91.3 555 97.8C564 104.3 579 110.7 568.5 117.2C558 123.7 522 130.3 520.5 137C519 143.7 552 150.3 553.5 156.8C555 163.3 525 169.7 519 176.2C513 182.7 531 189.3 528 195.8C525 202.3 501 208.7 504 215.2C507 221.7 537 228.3 549 234.8C561 241.3 555 247.7 558 254.2C561 260.7 573 267.3 573 273.8C573 280.3 561 286.7 564 293.2C567 299.7 585 306.3 597 313C609 319.7 615 326.3 613.5 332.8C612 339.3 603 345.7 588 352.2C573 358.7 552 365.3 538.5 371.8C525 378.3 519 384.7 513 391.2C507 397.7 501 404.3 502.5 410.8C504 417.3 513 423.7 526.5 430.2C540 436.7 558 443.3 567 446.7L576 450Z" fill="#25242b"></path><path d="M341 450L353 446.7C365 443.3 389 436.7 392 430.2C395 423.7 377 417.3 363.5 410.8C350 404.3 341 397.7 347 391.2C353 384.7 374 378.3 363.5 371.8C353 365.3 311 358.7 306.5 352.2C302 345.7 335 339.3 351.5 332.8C368 326.3 368 319.7 362 313C356 306.3 344 299.7 336.5 293.2C329 286.7 326 280.3 342.5 273.8C359 267.3 395 260.7 401 254.2C407 247.7 383 241.3 353 234.8C323 228.3 287 221.7 294.5 215.2C302 208.7 353 202.3 351.5 195.8C350 189.3 296 182.7 285.5 176.2C275 169.7 308 163.3 333.5 156.8C359 150.3 377 143.7 386 137C395 130.3 395 123.7 383 117.2C371 110.7 347 104.3 330.5 97.8C314 91.3 305 84.7 299 78.2C293 71.7 290 65.3 299 58.8C308 52.3 329 45.7 333.5 39.2C338 32.7 326 26.3 323 19.8C320 13.3 326 6.7 329 3.3L332 0L369 0L369 3.3C369 6.7 369 13.3 370.5 19.8C372 26.3 375 32.7 367.5 39.2C360 45.7 342 52.3 334.5 58.8C327 65.3 330 71.7 337.5 78.2C345 84.7 357 91.3 375 97.8C393 104.3 417 110.7 426 117.2C435 123.7 429 130.3 418.5 137C408 143.7 393 150.3 366 156.8C339 163.3 300 169.7 309 176.2C318 182.7 375 189.3 382.5 195.8C390 202.3 348 208.7 340.5 215.2C333 221.7 360 228.3 384 234.8C408 241.3 429 247.7 421.5 254.2C414 260.7 378 267.3 364.5 273.8C351 280.3 360 286.7 370.5 293.2C381 299.7 393 306.3 402 313C411 319.7 417 326.3 400.5 332.8C384 339.3 345 345.7 345 352.2C345 358.7 384 365.3 393 371.8C402 378.3 381 384.7 373.5 391.2C366 397.7 372 404.3 384 410.8C396 417.3 414 423.7 414 430.2C414 436.7 396 443.3 387 446.7L378 450Z" fill="#232229"></path><path d="M269 450L287 446.7C305 443.3 341 436.7 351.5 430.2C362 423.7 347 417.3 333.5 410.8C320 404.3 308 397.7 306.5 391.2C305 384.7 314 378.3 297.5 371.8C281 365.3 239 358.7 239 352.2C239 345.7 281 339.3 296 332.8C311 326.3 299 319.7 291.5 313C284 306.3 281 299.7 276.5 293.2C272 286.7 266 280.3 281 273.8C296 267.3 332 260.7 342.5 254.2C353 247.7 338 241.3 308 234.8C278 228.3 233 221.7 242 215.2C251 208.7 314 202.3 312.5 195.8C311 189.3 245 182.7 228.5 176.2C212 169.7 245 163.3 270.5 156.8C296 150.3 314 143.7 320 137C326 130.3 320 123.7 311 117.2C302 110.7 290 104.3 275 97.8C260 91.3 242 84.7 231.5 78.2C221 71.7 218 65.3 225.5 58.8C233 52.3 251 45.7 252.5 39.2C254 32.7 239 26.3 242 19.8C245 13.3 266 6.7 276.5 3.3L287 0L333 0L330 3.3C327 6.7 321 13.3 324 19.8C327 26.3 339 32.7 334.5 39.2C330 45.7 309 52.3 300 58.8C291 65.3 294 71.7 300 78.2C306 84.7 315 91.3 331.5 97.8C348 104.3 372 110.7 384 117.2C396 123.7 396 130.3 387 137C378 143.7 360 150.3 334.5 156.8C309 163.3 276 169.7 286.5 176.2C297 182.7 351 189.3 352.5 195.8C354 202.3 303 208.7 295.5 215.2C288 221.7 324 228.3 354 234.8C384 241.3 408 247.7 402 254.2C396 260.7 360 267.3 343.5 273.8C327 280.3 330 286.7 337.5 293.2C345 299.7 357 306.3 363 313C369 319.7 369 326.3 352.5 332.8C336 339.3 303 345.7 307.5 352.2C312 358.7 354 365.3 364.5 371.8C375 378.3 354 384.7 348 391.2C342 397.7 351 404.3 364.5 410.8C378 417.3 396 423.7 393 430.2C390 436.7 366 443.3 354 446.7L342 450Z" fill="#212027"></path><path d="M179 450L186.5 446.7C194 443.3 209 436.7 222.5 430.2C236 423.7 248 417.3 251 410.8C254 404.3 248 397.7 246.5 391.2C245 384.7 248 378.3 225.5 371.8C203 365.3 155 358.7 149 352.2C143 345.7 179 339.3 182 332.8C185 326.3 155 319.7 156.5 313C158 306.3 191 299.7 195.5 293.2C200 286.7 176 280.3 183.5 273.8C191 267.3 230 260.7 243.5 254.2C257 247.7 245 241.3 222.5 234.8C200 228.3 167 221.7 167 215.2C167 208.7 200 202.3 192.5 195.8C185 189.3 137 182.7 135.5 176.2C134 169.7 179 163.3 198.5 156.8C218 150.3 212 143.7 201.5 137C191 130.3 176 123.7 161 117.2C146 110.7 131 104.3 123.5 97.8C116 91.3 116 84.7 117.5 78.2C119 71.7 122 65.3 126.5 58.8C131 52.3 137 45.7 138.5 39.2C140 32.7 137 26.3 132.5 19.8C128 13.3 122 6.7 119 3.3L116 0L288 0L277.5 3.3C267 6.7 246 13.3 243 19.8C240 26.3 255 32.7 253.5 39.2C252 45.7 234 52.3 226.5 58.8C219 65.3 222 71.7 232.5 78.2C243 84.7 261 91.3 276 97.8C291 104.3 303 110.7 312 117.2C321 123.7 327 130.3 321 137C315 143.7 297 150.3 271.5 156.8C246 163.3 213 169.7 229.5 176.2C246 182.7 312 189.3 313.5 195.8C315 202.3 252 208.7 243 215.2C234 221.7 279 228.3 309 234.8C339 241.3 354 247.7 343.5 254.2C333 260.7 297 267.3 282 273.8C267 280.3 273 286.7 277.5 293.2C282 299.7 285 306.3 292.5 313C300 319.7 312 326.3 297 332.8C282 339.3 240 345.7 240 352.2C240 358.7 282 365.3 298.5 371.8C315 378.3 306 384.7 307.5 391.2C309 397.7 321 404.3 334.5 410.8C348 417.3 363 423.7 352.5 430.2C342 436.7 306 443.3 288 446.7L270 450Z" fill="#201f25"></path><path d="M0 450L0 446.7C0 443.3 0 436.7 0 430.2C0 423.7 0 417.3 0 410.8C0 404.3 0 397.7 0 391.2C0 384.7 0 378.3 0 371.8C0 365.3 0 358.7 0 352.2C0 345.7 0 339.3 0 332.8C0 326.3 0 319.7 0 313C0 306.3 0 299.7 0 293.2C0 286.7 0 280.3 0 273.8C0 267.3 0 260.7 0 254.2C0 247.7 0 241.3 0 234.8C0 228.3 0 221.7 0 215.2C0 208.7 0 202.3 0 195.8C0 189.3 0 182.7 0 176.2C0 169.7 0 163.3 0 156.8C0 150.3 0 143.7 0 137C0 130.3 0 123.7 0 117.2C0 110.7 0 104.3 0 97.8C0 91.3 0 84.7 0 78.2C0 71.7 0 65.3 0 58.8C0 52.3 0 45.7 0 39.2C0 32.7 0 26.3 0 19.8C0 13.3 0 6.7 0 3.3L0 0L117 0L120 3.3C123 6.7 129 13.3 133.5 19.8C138 26.3 141 32.7 139.5 39.2C138 45.7 132 52.3 127.5 58.8C123 65.3 120 71.7 118.5 78.2C117 84.7 117 91.3 124.5 97.8C132 104.3 147 110.7 162 117.2C177 123.7 192 130.3 202.5 137C213 143.7 219 150.3 199.5 156.8C180 163.3 135 169.7 136.5 176.2C138 182.7 186 189.3 193.5 195.8C201 202.3 168 208.7 168 215.2C168 221.7 201 228.3 223.5 234.8C246 241.3 258 247.7 244.5 254.2C231 260.7 192 267.3 184.5 273.8C177 280.3 201 286.7 196.5 293.2C192 299.7 159 306.3 157.5 313C156 319.7 186 326.3 183 332.8C180 339.3 144 345.7 150 352.2C156 358.7 204 365.3 226.5 371.8C249 378.3 246 384.7 247.5 391.2C249 397.7 255 404.3 252 410.8C249 417.3 237 423.7 223.5 430.2C210 436.7 195 443.3 187.5 446.7L180 450Z" fill="#1e1d23"></path></svg>