<svg id="visual" viewBox="0 0 900 600" width="900" height="600" xmlns="http://www.w3.org/2000/svg" xmlns:xlink="http://www.w3.org/1999/xlink" version="1.1"><path d="M0 426L21.5 385.8C43 345.7 86 265.3 128.8 260.5C171.7 255.7 214.3 326.3 257.2 359.2C300 392 343 387 385.8 353C428.7 319 471.3 256 514.2 225C557 194 600 195 642.8 200.3C685.7 205.7 728.3 215.3 771.2 255C814 294.7 857 364.3 878.5 399.2L900 434L900 0L878.5 0C857 0 814 0 771.2 0C728.3 0 685.7 0 642.8 0C600 0 557 0 514.2 0C471.3 0 428.7 0 385.8 0C343 0 300 0 257.2 0C214.3 0 171.7 0 128.8 0C86 0 43 0 21.5 0L0 0Z" fill="#27262e" stroke-linecap="round" stroke-linejoin="miter"></path></svg>